<?xml version="1.0" encoding="UTF-8"?>
<svg version="1.1" xmlns="http://www.w3.org/2000/svg" width="1024" height="1024">
<path d="M0 0 C337.92 0 675.84 0 1024 0 C1024 337.92 1024 675.84 1024 1024 C686.08 1024 348.16 1024 0 1024 C0 686.08 0 348.16 0 0 Z " fill="#FBFAF9" transform="translate(0,0)"/>
<path d="M0 0 C0.90492188 0.55993652 1.80984375 1.11987305 2.7421875 1.69677734 C9.55694006 5.92881118 16.34970135 10.19255699 22.9921875 14.69140625 C35.73075228 23.26336954 49.2541941 30.1893956 63 37 C63.86963379 37.43586426 64.73926758 37.87172852 65.63525391 38.32080078 C87.84456051 49.34131069 112.68565997 57.23707533 137 62 C137.7410498 62.14872559 138.48209961 62.29745117 139.24560547 62.45068359 C144.47555248 63.47826174 149.71633332 64.30242796 155 65 C155.77778809 65.10441406 156.55557617 65.20882812 157.35693359 65.31640625 C187.90286141 69.18592447 219.54331079 67.90114666 250 64 C251.72597412 63.79117188 251.72597412 63.79117188 253.48681641 63.578125 C288.15064061 59.32574049 320.16721816 49.03288908 352 35 C353.19834473 34.48034668 353.19834473 34.48034668 354.42089844 33.95019531 C371.33345456 26.58861811 386.91134272 16.67254418 402.67993164 7.17431641 C413.66852702 0.55613739 424.67704303 -5.96743301 436 -12 C436.65693848 -12.3511084 437.31387695 -12.7022168 437.99072266 -13.06396484 C463.94473303 -26.81114739 496.1576934 -39.66760094 525.88916016 -31.51464844 C539.15833917 -27.24058291 549.59545232 -20.22809005 556.58203125 -8.015625 C567.45638741 15.11110491 565.28155922 39.20561622 556.88916016 62.64086914 C549.70446916 81.80803221 538.03951543 98.2254314 524 113 C522.78472745 114.41071844 521.57579395 115.82693719 520.375 117.25 C516.88437282 121.2392882 513.08787454 124.6331364 509 128 C508.46842285 128.4439209 507.9368457 128.8878418 507.38916016 129.34521484 C472.98260565 158 472.98260565 158 457 158 C457.4846875 158.92296875 457.969375 159.8459375 458.46875 160.796875 C478 198.56581702 478 198.56581702 478 213 C478.71800781 213.10441406 479.43601562 213.20882812 480.17578125 213.31640625 C491.71486705 216.10940765 501.51228732 226.89873307 507.8125 236.4375 C520.01759569 256.83662708 523.55235039 278.44226588 523.39111328 301.85058594 C523.37497065 304.63005299 523.39109901 307.40807535 523.41015625 310.1875 C523.42274012 321.16142697 522.48751987 331.30043207 520 342 C519.70689365 343.31114898 519.41400666 344.62234702 519.12133789 345.93359375 C516.02555221 359.34461579 510.42645275 372.80361624 501 383 C500.38511719 383.69351562 499.77023437 384.38703125 499.13671875 385.1015625 C494.34465635 390.2297415 489.09718657 393.59943769 483 397 C479.88334932 398.60618029 479.88334932 398.60618029 479.46337891 400.92919922 C479.38522949 401.71311035 479.30708008 402.49702148 479.2265625 403.3046875 C479.12649902 404.18890381 479.02643555 405.07312012 478.92333984 405.98413086 C478.8248877 406.93811768 478.72643555 407.89210449 478.625 408.875 C477.59843232 417.58790347 475.99942413 425.92053713 473.71337891 434.38818359 C473.12037355 436.58714897 472.55670312 438.79161454 472 441 C471.67644531 442.23234375 471.35289062 443.4646875 471.01953125 444.734375 C470.6579148 448.15676292 470.6579148 448.15676292 473.17578125 450.73828125 C474.20349335 451.61766723 475.25051617 452.47482333 476.3125 453.3125 C477.42867834 454.26375663 478.54323577 455.21691814 479.65625 456.171875 C480.21957031 456.64431641 480.78289063 457.11675781 481.36328125 457.60351562 C496.16515206 470.23279681 509.39768423 489.00476136 511.17138672 508.92480469 C512.95021814 535.72755283 499.06372441 557.450513 482 577 C470.06905111 590.37311108 457.28217362 602.18768981 443 613 C442.34708984 613.49870605 441.69417969 613.99741211 441.02148438 614.51123047 C382.92132104 658.64340151 311.52843182 681.80703181 239.58251953 689.609375 C236.48798951 689.94679139 233.3987595 690.31286688 230.30859375 690.6875 C143.43773261 700.4630846 44.93832717 680.95131245 -25 627 C-26.19254668 626.09614085 -27.38525536 625.19249539 -28.578125 624.2890625 C-36.26525739 618.41277523 -43.49167114 612.14925366 -50.47705078 605.45556641 C-51.93041191 604.06650917 -53.40037699 602.69488675 -54.87109375 601.32421875 C-66.64829751 590.04817259 -75.70545825 577.04868478 -82 562 C-82.27102539 561.35933594 -82.54205078 560.71867188 -82.82128906 560.05859375 C-86.59154322 550.71553589 -87.44298585 541.72626594 -87.5 531.6875 C-87.50644531 530.6145166 -87.51289063 529.5415332 -87.51953125 528.43603516 C-87.35090953 517.8955563 -85.2083247 508.26026548 -80.25 498.9375 C-79.72176636 497.92091309 -79.72176636 497.92091309 -79.18286133 496.88378906 C-72.44187716 484.09032619 -64.22285964 474.12709515 -54 464 C-55.67423276 458.82582351 -57.5979378 453.76191245 -59.61328125 448.71289062 C-64.30526717 436.52102048 -66.72784224 423.9260409 -68.625 411.0625 C-68.83001999 409.72450052 -69.03574881 408.38660945 -69.2421875 407.04882812 C-70.66711017 397.71970559 -71.87010854 388.36874827 -73 379 C-74.26529541 378.8568335 -75.53059082 378.71366699 -76.83422852 378.56616211 C-85.73474588 377.55908033 -92.29080963 371.514816 -97.8984375 364.88671875 C-111.73114299 345.88603221 -113.38052901 322.17285445 -113.26074219 299.47094727 C-113.25001991 297.06696283 -113.26071942 294.66372778 -113.2734375 292.25976562 C-113.28694227 278.47928837 -112.81333575 264.17103401 -108.875 250.875 C-108.66327148 250.14474609 -108.45154297 249.41449219 -108.23339844 248.66210938 C-104.29700185 235.8286814 -98.21142951 222.71432705 -87.078125 214.59912109 C-80.58604886 209.64139906 -78.98398711 204.49866278 -77 196.75 C-76.34496796 194.41968877 -75.68212568 192.09155964 -75.01171875 189.765625 C-74.51744385 188.04762695 -74.51744385 188.04762695 -74.01318359 186.29492188 C-70.763427 175.72655683 -66.01759736 165.45727927 -60.8125 155.71484375 C-59.85727506 154.01503292 -59.85727506 154.01503292 -60 152 C-61.01835937 151.50113281 -62.03671875 151.00226563 -63.0859375 150.48828125 C-78.60712974 142.68969296 -92.37209073 132.91580912 -105 121 C-106.28830474 119.9126708 -107.57991155 118.82924038 -108.875 117.75 C-134.84306963 94.96275818 -156.01668386 61.45743516 -159.22314453 26.57226562 C-160.35607884 8.88570491 -156.90010982 -7.88931096 -145.59375 -22.00390625 C-105.65461072 -65.17341709 -38.83071177 -24.07378056 0 0 Z " fill="#131513" transform="translate(310,246)"/>
<path d="M0 0 C3.17329055 1.60354102 6.36723464 3.16493338 9.55993652 4.72937012 C10.17621918 5.03224945 10.79250183 5.33512878 11.42745972 5.64718628 C32.31399297 15.87096084 50.60523323 19.33077363 73.07214355 12.01794434 C79.97290084 9.55581057 86.57995187 6.39759038 93.18981934 3.25280762 C110.26897164 -4.83917209 128.60944679 -12.66315719 147.68103027 -6.24328613 C167.73528645 2.61789683 174.61530862 20.83493788 182.14123535 40.15783691 C192.15351738 66.38435996 200.03451425 93.39597994 207.8651123 120.33435059 C211.4462356 132.61484794 215.29042302 144.77121882 219.57434082 156.82556152 C224.07041789 169.74191077 224.07041789 169.74191077 223.55603027 176.13171387 C221.00520562 180.31072446 216.45675403 181.82360091 212.05603027 183.63171387 C211.25632812 183.96356689 210.45662598 184.29541992 209.63269043 184.6373291 C147.74863736 209.54462289 77.33051914 224.82891562 10.55603027 215.13171387 C9.43067871 214.97041992 8.30532715 214.80912598 7.14587402 214.64294434 C-38.66110169 207.90556187 -88.93698127 193.50102241 -126.44396973 165.13171387 C-121.61108624 114.53746483 -95.23364068 36.03780018 -55.79553223 1.83483887 C-37.07489513 -12.5333812 -20.228859 -10.23604723 0 0 Z " fill="#131513" transform="translate(459.4439697265625,79.8682861328125)"/>
<path d="M0 0 C4.29247093 2.56634964 8.06349595 6.20147602 10.625 10.5 C10.8125 13.25390625 10.8125 13.25390625 10.625 15.5 C7.5 15.9375 7.5 15.9375 3.625 15.5 C1.7574224 13.85585719 0.36158842 12.12907196 -1.11328125 10.12890625 C-2.97629714 7.72371236 -4.23532214 7.52125533 -7.25 7.0625 C-13.99930594 7.18957898 -20.88089526 11.09219646 -25.6328125 15.6796875 C-26.81854741 17.07379424 -27.96958717 18.49877998 -29.0703125 19.9609375 C-29.50085938 20.46882813 -29.93140625 20.97671875 -30.375 21.5 C-31.035 21.5 -31.695 21.5 -32.375 21.5 C-32.31383714 22.87616443 -32.22475557 24.25109379 -32.125 25.625 C-32.07859375 26.39070313 -32.0321875 27.15640625 -31.984375 27.9453125 C-30.50858959 34.13225902 -25.76270931 38.33070587 -21.3125 42.5625 C-15.73608343 47.86722757 -15.73608343 47.86722757 -13.765625 51.3203125 C-12.58842828 53.66282319 -12.58842828 53.66282319 -10.33203125 54.20703125 C-9.27048828 54.25923828 -9.27048828 54.25923828 -8.1875 54.3125 C-6.929375 54.374375 -5.67125 54.43625 -4.375 54.5 C-2.68844824 48.2597585 -1.34178128 42.32609503 -0.8125 35.875 C0.21847535 28.17519311 4.81376168 24.24977597 10.625 19.5 C19.27967178 22.18979727 26.31086042 27.1048494 33.5 32.5 C34.0472876 32.90283203 34.5945752 33.30566406 35.15844727 33.72070312 C38.83947215 36.54885605 41.31447783 39.48170058 43.625 43.5 C43.625 44.16 43.625 44.82 43.625 45.5 C44.73875 45.87125 44.73875 45.87125 45.875 46.25 C49.05348333 47.69476515 50.58035769 48.65210536 52.625 51.5 C53.4993934 54.54356164 53.86285145 57.33831604 53.625 60.5 C52.0625 63.0625 52.0625 63.0625 49.625 64.5 C46.80078125 64.8984375 46.80078125 64.8984375 43.625 64.5 C40.921875 62.34765625 40.921875 62.34765625 38.375 59.5625 C34.36235079 54.88961539 34.36235079 54.88961539 28.75 53.1875 C24.93579571 53.56892043 24.08323721 54.69058605 21.625 57.5 C20.965 57.5 20.305 57.5 19.625 57.5 C20.3675 58.6446875 20.3675 58.6446875 21.125 59.8125 C23.14609197 64.78101775 22.87931356 69.20651036 22.625 74.5 C21.73039063 74.58636719 20.83578125 74.67273438 19.9140625 74.76171875 C8.3708082 75.86147894 8.3708082 75.86147894 -1.375 81.5 C-2.92518424 84.58611392 -4.1386486 87.58725385 -5.26416016 90.84082031 C-7.64472759 97.69564662 -11.21301451 101.74368225 -16.59765625 106.4375 C-20.76753741 110.02036857 -20.76753741 110.02036857 -22.9140625 114.8984375 C-22.94825142 118.41989646 -22.49107223 121.15178332 -21.375 124.5 C-20.93388359 133.61640572 -20.93388359 133.61640572 -23.375 137.5 C-26.5 139.3125 -26.5 139.3125 -29.375 140.5 C-35.44272756 134.69608668 -36.58865681 129.75660344 -37.375 121.5 C-38.14585937 121.29503906 -38.91671875 121.09007812 -39.7109375 120.87890625 C-40.71382813 120.60949219 -41.71671875 120.34007812 -42.75 120.0625 C-43.74773437 119.79566406 -44.74546875 119.52882813 -45.7734375 119.25390625 C-48.375 118.5 -48.375 118.5 -50.375 117.5 C-53.49276133 117.27014692 -53.49276133 117.27014692 -55.8359375 117.3984375 C-58.375 117.5 -58.375 117.5 -61.4765625 117.3515625 C-65.3733567 117.4519483 -67.84862747 117.78632934 -71.375 119.5 C-75.07398724 123.89693343 -77.26593743 129.29333273 -79.49487305 134.53930664 C-80.375 136.5 -80.375 136.5 -82.08984375 139.328125 C-83.99558818 142.54877516 -83.82607597 144.82695281 -83.375 148.5 C-80.92887255 153.29817308 -78.12298179 155.98636258 -73.375 158.5 C-69.64274656 159.29682803 -69.64274656 159.29682803 -66.375 159.5 C-66.313125 158.7575 -66.25125 158.015 -66.1875 157.25 C-65.11227351 153.61077188 -63.5135222 152.54368887 -60.375 150.5 C-58.25 149.5625 -58.25 149.5625 -56.375 149.5 C-54.625 150.5625 -54.625 150.5625 -53.375 152.5 C-52.94080411 156.58144139 -53.47866506 158.94437198 -55.375 162.5 C-55.375 163.82 -55.375 165.14 -55.375 166.5 C-54.69953125 166.62117187 -54.0240625 166.74234375 -53.328125 166.8671875 C-51.99007812 167.11855469 -51.99007812 167.11855469 -50.625 167.375 C-49.30242187 167.61863281 -49.30242187 167.61863281 -47.953125 167.8671875 C-45.44513813 168.48278428 -43.54521395 169.10554235 -41.375 170.5 C-38.1379032 176.85858299 -38.02538163 182.45583733 -38.375 189.5 C-39.035 189.5 -39.695 189.5 -40.375 189.5 C-40.375 190.16 -40.375 190.82 -40.375 191.5 C-39.6325 191.768125 -38.89 192.03625 -38.125 192.3125 C-35.375 193.5 -35.375 193.5 -33.5 195.125 C-30.37884831 197.14456874 -28.05913298 196.71649414 -24.375 196.5 C-21.69565056 195.83357669 -19.16879557 195.12213209 -16.5625 194.25 C-15.86181396 194.02546143 -15.16112793 193.80092285 -14.43920898 193.56958008 C-10.51268049 192.28969194 -6.72385917 190.8432903 -2.9375 189.1875 C1.64632863 187.31717527 5.7180587 186.44164011 10.625 187.5 C12.66015625 188.62890625 12.66015625 188.62890625 14.75 190 C19.01805597 192.70035176 22.18094856 192.69847578 27.1875 192.5 C32.7528465 192.33370479 36.25674501 192.38028768 40.75390625 195.7265625 C42.625 197.5 42.625 197.5 44.90234375 200.0234375 C49.51377 205.41493486 49.51377 205.41493486 55.7890625 208.2265625 C58.95826911 208.42181783 58.95826911 208.42181783 61.9609375 208.2421875 C64.625 208.5 64.625 208.5 66.8984375 210.3359375 C70.88947505 215.33827869 70.83551523 220.39505841 70.625 226.5 C72.1409375 226.685625 72.1409375 226.685625 73.6875 226.875 C77.50437612 227.48085335 80.94000112 228.37193912 84.625 229.5 C84.625 230.49 84.625 231.48 84.625 232.5 C85.27460693 232.47905273 85.92421387 232.45810547 86.59350586 232.43652344 C89.58300833 232.35254417 92.57226158 232.301084 95.5625 232.25 C96.58408203 232.21648437 97.60566406 232.18296875 98.65820312 232.1484375 C105.33803825 232.06307219 110.95333705 232.72154403 116.625 236.5 C118.72375343 239.64813014 119.16918248 241.57336682 119.06640625 245.328125 C118.06507484 250.25502997 114.11439409 253.81401922 110.87890625 257.4765625 C106.57025171 262.60088661 104.1439822 267.82108539 101.82641602 274.03662109 C98.86574525 281.81269805 94.40541678 288.85891788 86.5715332 292.43823242 C84.16060732 293.39969774 81.73835429 294.32689354 79.3125 295.25 C72.72679151 297.86864598 67.915846 300.27412709 63.23046875 305.7421875 C57.79592894 311.69241357 48.81404736 313.14327115 41.11688232 313.67242432 C38.56236739 313.72863307 36.0158625 313.72572863 33.4609375 313.6953125 C32.54285309 313.6924826 31.62476868 313.68965271 30.67886353 313.68673706 C27.78576864 313.67566399 24.89299914 313.65058467 22 313.625 C20.02213993 313.61495352 18.04427494 313.60583061 16.06640625 313.59765625 C11.25248141 313.57576705 6.4387956 313.54132832 1.625 313.5 C2.0890625 312.6028125 2.0890625 312.6028125 2.5625 311.6875 C5.77997945 305.0632776 5.48041211 297.22767941 4.1875 290.08203125 C1.47653122 283.0080971 -6.13733738 280.00685493 -12.375 276.5 C-24.06561902 269.46141725 -28.72147102 261.34046957 -34.47631836 249.28735352 C-35.26509421 247.71858741 -36.16395172 246.20619156 -37.078125 244.70703125 C-39.05714832 241.33911505 -38.94545888 239.36644354 -38.375 235.5 C-35.12325974 227.76720304 -29.67234233 222.6211444 -23.47265625 217.23828125 C-21.01602521 214.59252645 -21.01602521 214.59252645 -21.30859375 210.85546875 C-22.1077571 207.53656854 -22.1077571 207.53656854 -24.05859375 205.640625 C-26.84819516 204.26699327 -29.37248283 203.7713881 -32.4375 203.25 C-39.55160893 201.71418006 -44.57860453 198.80859663 -50.375 194.5 C-51.70917969 193.51580078 -51.70917969 193.51580078 -53.0703125 192.51171875 C-57.50707752 189.10136952 -61.46097637 185.64306475 -64.92578125 181.23828125 C-69.17990241 176.13562919 -72.03297235 173.91063966 -78.625 172.5 C-90.26179785 169.7615141 -99.25436874 164.44082431 -105.90161133 154.29541016 C-108.7113218 148.96464216 -109.82313157 143.1586838 -111.125 137.3125 C-111.7013254 134.83942368 -112.27938967 132.3667518 -112.859375 129.89453125 C-113.22627441 128.26801636 -113.22627441 128.26801636 -113.60058594 126.60864258 C-114.3411502 123.4562834 -114.3411502 123.4562834 -115.46191406 120.2800293 C-116.37501297 117.49996052 -116.54567774 115.40152164 -116.375 112.5 C-117.035 112.5 -117.695 112.5 -118.375 112.5 C-118.34019531 113.056875 -118.30539062 113.61375 -118.26953125 114.1875 C-118.03363678 120.83747751 -119.38778512 125.52557024 -122.375 131.5 C-123.365 131.17 -124.355 130.84 -125.375 130.5 C-131.17307275 100.16365506 -125.07331336 73.59677828 -107.7578125 47.953125 C-101.00455562 38.45236928 -93.79134954 29.26511029 -84.125 22.5625 C-80.14960066 19.77533986 -76.31395743 16.87886885 -72.5 13.875 C-60.15117713 4.5893267 -47.90039515 1.32262381 -32.796875 0.93359375 C-28.77473814 0.79170855 -25.05439198 0.53200288 -21.15625 -0.5078125 C-14.36261443 -2.29044001 -6.5766859 -2.89169458 0 0 Z " fill="#FAF9F8" transform="translate(471.375,440.5)"/>
<path d="M0 0 C10.73554032 2.94481835 21.08551792 9.35238932 30.8671875 14.6015625 C53.06381907 26.50527765 72.25507174 30.3132958 96.84936523 23.11645508 C108.53357337 19.48697697 119.10198157 14.11290425 129.78686523 8.2434082 C138.60157053 3.44069609 147.68936503 -1.05210561 158 0 C162.33191293 1.40959072 163.54103949 4.11999711 165.5625 8.0625 C175.98280016 29.15554702 181.82976501 53.16561965 188.20385742 75.70402527 C189.76721169 81.21856294 191.38198805 86.71728322 193.00390625 92.21484375 C193.77183834 94.82794306 194.53911995 97.44123242 195.30615234 100.05459595 C195.80680778 101.75604469 196.30954512 103.45688234 196.81445312 105.15707397 C197.51925063 107.53262334 198.21558316 109.91050689 198.91015625 112.2890625 C199.12217178 112.9959874 199.33418732 113.70291229 199.55262756 114.43125916 C200.60928215 118.0808967 201.09001788 121.21671416 201 125 C178.63366926 135.04436139 152.67764081 133.57703433 128.65987849 133.43850732 C124.15824329 133.41674574 119.6566019 133.41778675 115.15492249 133.41581726 C107.59677587 133.40942042 100.03879404 133.38838415 92.48071289 133.35668945 C82.89240653 133.31652403 73.30420733 133.29899876 63.71582699 133.28938007 C55.33613565 133.28095893 46.95646523 133.26377328 38.57679296 133.24434257 C36.81132922 133.24034136 35.04586489 133.23659535 33.28040004 133.2331202 C15.01004726 133.19684221 -3.25287935 133.07474712 -21.51733398 132.58276367 C-22.20323109 132.56593304 -22.88912819 132.54910241 -23.59581006 132.53176177 C-36.51550979 132.20516061 -49.21817131 130.8897196 -62 129 C-61.40280348 121.38170931 -59.68567431 114.34758088 -57.625 107 C-57.09869995 105.11812988 -57.09869995 105.11812988 -56.56176758 103.19824219 C-26.44032751 -3.22241492 -26.44032751 -3.22241492 0 0 Z " fill="#FAFAF9" transform="translate(436,109)"/>
<path d="M0 0 C1.55591172 0.12338172 3.11189382 0.2458815 4.66796875 0.3671875 C40.47193756 3.48967531 81.73800439 16.3830244 110 39 C110.94617188 39.73863281 111.89234375 40.47726562 112.8671875 41.23828125 C119.87959997 46.83033255 126.47607996 52.85313448 133 59 C133.8559375 59.79019531 134.711875 60.58039063 135.59375 61.39453125 C163.04511288 87.58625881 178.16503252 127.68385852 179.12792969 165.19433594 C180.24193425 223.02649085 165.38113973 273.46062091 125.9375 316.75 C125.46707275 317.26908936 124.99664551 317.78817871 124.51196289 318.32299805 C106.53966147 337.73925433 82.90247302 352.99010623 59 364 C57.88882812 364.51949219 56.77765625 365.03898437 55.6328125 365.57421875 C8.22723443 386.82307198 -49.04334512 392.39187155 -100 384 C-101.44536133 383.76651855 -101.44536133 383.76651855 -102.91992188 383.52832031 C-159.13412888 374.07119549 -214.56607271 344.87698043 -248.31347656 298.18261719 C-263.53959917 276.72290383 -272.91589766 253.50739071 -279 228 C-279.24556641 227.02530762 -279.49113281 226.05061523 -279.74414062 225.04638672 C-283.778714 208.59139516 -284.45490262 192.62315613 -284.4375 175.75 C-284.43772156 174.74180206 -284.43794312 173.73360413 -284.43817139 172.69485474 C-284.40261595 157.51160113 -283.90626841 142.42517802 -279.875 127.6875 C-279.66399658 126.90536133 -279.45299316 126.12322266 -279.2355957 125.31738281 C-271.96234138 99.62897662 -258.4427628 77.10712746 -240 58 C-239.18789063 57.12472656 -238.37578125 56.24945313 -237.5390625 55.34765625 C-226.82071657 44.09165866 -213.41681176 36.58277962 -200 29 C-199.28134766 28.5860498 -198.56269531 28.17209961 -197.82226562 27.74560547 C-183.86371428 19.75099202 -169.20720895 14.16613178 -154 9 C-153.18740723 8.71753418 -152.37481445 8.43506836 -151.53759766 8.14404297 C-137.70844626 3.4266657 -123.17384201 1.98390684 -108.71679688 0.40673828 C-106.46433879 0.16024622 -104.21271513 -0.09429698 -101.96289062 -0.36376953 C-68.50365635 -4.33601762 -33.49501768 -3.1327523 0 0 Z M-227.75 72.3125 C-243.86731025 89.01975572 -254.2213289 109.99576632 -261 132 C-261.24008789 132.7528125 -261.48017578 133.505625 -261.72753906 134.28125 C-274.07073764 174.89791536 -264.46632821 230.00815396 -245 267 C-244.67676758 267.62455078 -244.35353516 268.24910156 -244.02050781 268.89257812 C-236.89499553 282.49131698 -227.53884622 293.95855605 -217 305 C-216.31035156 305.73089844 -215.62070312 306.46179688 -214.91015625 307.21484375 C-177.28617356 346.069877 -119.68640365 366.98403152 -66.359375 368.1953125 C-0.95561025 369.01034121 60.87134446 352.8299736 108.73535156 306.54785156 C124.23010495 291.28563574 135.90891258 273.69657707 145 254 C145.31211426 253.33129883 145.62422852 252.66259766 145.94580078 251.97363281 C151.29710038 240.34134681 154.48759062 228.53137899 157 216 C157.16516113 215.21882812 157.33032227 214.43765625 157.50048828 213.6328125 C165.85949199 173.10850082 159.40491722 127.99262608 137 93 C134.20526086 89.12206498 131.20356941 85.54377147 128 82 C126.92298828 80.74509766 126.92298828 80.74509766 125.82421875 79.46484375 C91.88186748 40.45826956 42.58042774 22.33003912 -8 18 C-9.00232666 17.9057373 -10.00465332 17.81147461 -11.03735352 17.71435547 C-23.17233071 16.72399461 -35.32893408 16.84927635 -47.49584961 16.86962891 C-51.29349792 16.87497326 -55.09102722 16.86966591 -58.88867188 16.86328125 C-120.19044596 16.8412216 -181.85959926 28.41733408 -227.75 72.3125 Z " fill="#F9F9F7" transform="translate(549,405)"/>
<path d="M0 0 C10.52378575 1.60400534 21.05863825 3.02646612 31.625 4.3125 C32.90850342 4.47081299 34.19200684 4.62912598 35.5144043 4.79223633 C53.72968192 6.97788626 71.98250903 8.53555909 90.3125 9.3125 C91.77268051 9.37454117 91.77268051 9.37454117 93.26235962 9.43783569 C141.62591485 11.40147164 190.15286042 11.10573687 238.44073486 7.84051514 C252.42508374 6.91556156 266.42552204 6.31086367 280.42648315 5.70059204 C283.41829078 5.57012247 286.40990849 5.43625066 289.40139771 5.29867554 C297.59636175 4.92285682 305.79030629 4.59441945 313.98965454 4.32702637 C317.75314348 4.1896664 321.51129535 3.99789784 325.2722168 3.80371094 C343.9691722 3.03655349 343.9691722 3.03655349 350.12109375 7.8515625 C352.29516602 10.23144531 352.29516602 10.23144531 354.25 12.8125 C355.38103149 14.1133252 355.38103149 14.1133252 356.53491211 15.44042969 C358.70490405 17.96963617 360.76153608 20.56155788 362.8125 23.1875 C363.89294255 24.47598192 364.97830684 25.76036574 366.0703125 27.0390625 C368.81217996 30.31340321 371.3418481 33.70549342 373.8125 37.1875 C374.45106934 38.07550293 374.45106934 38.07550293 375.10253906 38.98144531 C390.04907161 59.93775267 401.00288318 85.13859398 406.8125 110.1875 C406.9875708 110.86216309 407.1626416 111.53682617 407.34301758 112.23193359 C407.7734375 114.30859375 407.7734375 114.30859375 407.8125 118.1875 C405.9764266 120.54860962 404.66693313 121.92490088 402.375 123.6875 C401.84583984 124.12835938 401.31667969 124.56921875 400.77148438 125.0234375 C399.47082009 126.10146556 398.14403231 127.14783957 396.8125 128.1875 C392.38975792 124.57059652 388.28115759 120.72964255 384.265625 116.66796875 C383.7653479 116.16218292 383.2650708 115.65639709 382.74963379 115.13528442 C380.66626595 113.02441297 378.58639144 110.91019074 376.51171875 108.79077148 C369.61770151 101.75821941 362.53971894 95.3186546 354.8125 89.1875 C353.78365668 88.31382795 352.75998027 87.43395447 351.74609375 86.54296875 C284.41968895 28.06698336 186.88586867 21.41822737 101.85971069 27.34779358 C52.99847185 30.97362014 4.57260051 44.7048145 -35.1875 74.1875 C-35.79432617 74.63738281 -36.40115234 75.08726562 -37.02636719 75.55078125 C-64.39568285 96.05192002 -86.37549319 121.25454364 -99.1875 153.1875 C-99.5175 153.1875 -99.8475 153.1875 -100.1875 153.1875 C-100.29117786 148.52604069 -99.98819435 144.28648307 -99.0859375 139.71484375 C-98.84625244 138.49643799 -98.60656738 137.27803223 -98.35961914 136.02270508 C-98.09656982 134.7364624 -97.83352051 133.45021973 -97.5625 132.125 C-97.4277829 131.46132416 -97.2930658 130.79764832 -97.15426636 130.11386108 C-88.33442543 86.83069479 -72.43956897 47.60489246 -41.859375 15.046875 C-39.31373405 12.32259258 -36.84062734 9.54658403 -34.375 6.75 C-32.98055454 5.22789404 -31.58489936 3.70689454 -30.1875 2.1875 C-29.7028125 1.60484375 -29.218125 1.0221875 -28.71875 0.421875 C-22.40131597 -6.2628517 -8.12151041 -1.27873481 0 0 Z " fill="#F9F9F8" transform="translate(350.1875,347.8125)"/>
<path d="M0 0 C3.40844088 1.37909662 4.66737535 2.60563494 6.1875 5.9375 C6.51105469 6.62714844 6.83460938 7.31679688 7.16796875 8.02734375 C10.23030367 15.28780916 10.18965081 23.82969912 7.375 31.1875 C6.62007719 32.80928246 5.82800832 34.41428596 5 36 C4.41605469 37.16208984 4.41605469 37.16208984 3.8203125 38.34765625 C-26.41050213 93.35342844 -101.66408573 124.26485128 -158.0390625 141.00390625 C-251.082909 167.95921823 -353.72345053 165.97970022 -440.40527344 119.43847656 C-453.09601774 112.40292279 -464.88902174 104.31687197 -476 95 C-476.62922363 94.47760742 -477.25844727 93.95521484 -477.90673828 93.41699219 C-493.41216678 80.49516195 -510.1387593 65.27168985 -512.20263672 43.90185547 C-512.69889116 35.87878106 -512.73025609 28.30508484 -509 21 C-508.34 21 -507.68 21 -507 21 C-505.41915982 23.3682202 -503.94815759 25.73966795 -502.5 28.1875 C-493.68191617 42.67561656 -483.21541438 56.24584568 -470 67 C-469.00484375 67.82113281 -468.0096875 68.64226562 -466.984375 69.48828125 C-439.27396519 92.02629742 -406.33177425 107.4955335 -372 117 C-371.11570312 117.2470166 -370.23140625 117.4940332 -369.3203125 117.74853516 C-355.9358336 121.40748463 -342.47091795 123.86461839 -328.75 125.8125 C-327.64144653 125.9703447 -327.64144653 125.9703447 -326.51049805 126.13137817 C-309.37542596 128.54138532 -292.5381302 129.2049963 -275.25 129.1875 C-274.15329987 129.18689575 -273.05659973 129.1862915 -271.92666626 129.18566895 C-256.18941093 129.1620837 -240.63536424 128.94472366 -225 127 C-223.9382959 126.87641113 -222.8765918 126.75282227 -221.78271484 126.62548828 C-153.84701202 118.56697572 -86.74276506 93.82875648 -36.46435547 46.38085938 C-35.06794644 45.0640722 -33.66117406 43.75830084 -32.25390625 42.453125 C-19.30211752 30.04647687 -9.45640147 15.14161278 0 0 Z " fill="#F9F9F8" transform="translate(771,743)"/>
<path d="M0 0 C2.97 1.32 5.94 2.64 9 4 C8.92497562 25.30692504 1.34126724 46.35774649 -7.16699219 65.64550781 C-7.73015137 66.95406738 -7.73015137 66.95406738 -8.3046875 68.2890625 C-8.65257324 69.0723291 -9.00045898 69.8555957 -9.35888672 70.66259766 C-10.13771171 73.50207614 -9.88429672 75.20961785 -9 78 C-7.0431712 79.82337753 -7.0431712 79.82337753 -5 81 C-5.54379515 85.6006796 -7.5494944 88.90553042 -10.0625 92.6875 C-10.46662109 93.30399414 -10.87074219 93.92048828 -11.28710938 94.55566406 C-24.22327811 114.02065035 -41.25246029 131.13319371 -60 145 C-60.5455957 145.41169434 -61.09119141 145.82338867 -61.65332031 146.24755859 C-71.92598743 153.99038978 -82.83584631 160.62705058 -94 167 C-94.8235498 167.47083008 -95.64709961 167.94166016 -96.49560547 168.42675781 C-118.31364654 180.74012329 -141.87377928 189.41330427 -166 196 C-167.39774658 196.39179443 -167.39774658 196.39179443 -168.82373047 196.79150391 C-185.5691923 201.42030751 -202.5098688 203.8502079 -219.7109375 206.01953125 C-220.38413025 206.10466476 -221.057323 206.18979828 -221.75091553 206.2775116 C-231.34247797 207.45308301 -240.82539694 208.15713451 -250.4921875 208.16796875 C-251.55881622 208.17129715 -252.62544495 208.17462555 -253.72439575 208.17805481 C-255.97153294 208.18308652 -258.2186775 208.18546431 -260.46582031 208.18530273 C-263.83151229 208.18747197 -267.19686653 208.20562097 -270.5625 208.22460938 C-288.7389698 208.27325761 -306.56360372 207.21141001 -324.4375 203.75 C-326.13652466 203.4257605 -326.13652466 203.4257605 -327.86987305 203.0949707 C-375.73020328 193.68130923 -425.99776961 174.03800153 -455.03125 132.96484375 C-463.18409618 120.68704563 -470.20018387 107.29542478 -474 93 C-473.34 93 -472.68 93 -472 93 C-470.6953125 94.51171875 -470.6953125 94.51171875 -469.125 96.6875 C-429.81105042 148.58845215 -363.76525439 173.09435371 -301.41503906 182.04980469 C-291.78059431 183.37458884 -282.22280062 184.15584705 -272.49609375 184.16796875 C-271.53333023 184.17129715 -270.57056671 184.17462555 -269.57862854 184.17805481 C-267.55429557 184.18308 -265.52995444 184.18546451 -263.50561523 184.18530273 C-260.46909305 184.18747737 -257.43294202 184.20564844 -254.39648438 184.22460938 C-236.26400337 184.27710755 -218.80939817 182.29174792 -201 179 C-200.27828613 178.86899902 -199.55657227 178.73799805 -198.81298828 178.60302734 C-151.05370426 169.77295181 -104.24361442 151.26167825 -68.20703125 118.01953125 C-66.28517848 116.26095093 -64.32352511 114.59180225 -62.3125 112.9375 C-59.17268723 110.26609753 -56.52336267 107.31170134 -53.86328125 104.16796875 C-52.603754 102.70248107 -51.30780873 101.26764289 -49.98046875 99.86328125 C-38.04097262 87.19235653 -28.88728207 72.44967172 -21 57 C-20.66581055 56.35708008 -20.33162109 55.71416016 -19.98730469 55.05175781 C-12.3027917 40.00194666 -7.76372605 23.48360038 -2.7386322 7.40803528 C-1.10571032 2.21142065 -1.10571032 2.21142065 0 0 Z " fill="#F9F9F8" transform="translate(755,637)"/>
<path d="M0 0 C6.55038489 3.39612262 11.6205127 8.12226704 16 14 C16 14.66 16 15.32 16 16 C17.32 16 18.64 16 20 16 C20.04125 15.401875 20.0825 14.80375 20.125 14.1875 C21 12 21 12 24.0625 10.25 C25.031875 9.8375 26.00125 9.425 27 9 C39.75802954 30.28081156 40.18135135 61.69993564 34.46289062 85.20800781 C32.51157071 92.64386285 30.40389281 100.08639387 27 107 C24.3125 107.9375 24.3125 107.9375 22 108 C20.05662363 105.08493545 19.72325333 104.17028308 19.4375 100.875 C19.43313101 97.22536034 19.43313101 97.22536034 18 96 C12.4559035 96.23100402 8.82084139 97.96737222 4.11328125 100.84375 C0.13775204 103.01890092 -3.44444937 103.15917055 -7.9375 103.1875 C-8.95714844 103.20167969 -9.97679687 103.21585938 -11.02734375 103.23046875 C-14.14821687 102.98850881 -16.25075665 102.48957262 -19 101 C-20.15234375 99.3359375 -20.15234375 99.3359375 -20.9375 97.375 C-22.68405723 93.43989962 -24.89320219 90.36209269 -27.6328125 87.0546875 C-31.20313875 81.6889972 -31.3554556 76.03898144 -31.5625 69.8125 C-31.62252935 68.21469755 -31.68618203 66.61702605 -31.75390625 65.01953125 C-31.77783447 64.31932861 -31.8017627 63.61912598 -31.82641602 62.89770508 C-31.94757337 60.776451 -31.94757337 60.776451 -33 58 C-34.08324236 48.08738219 -34.22102172 38.60125868 -28.6640625 30.015625 C-27 28 -27 28 -24.1875 25.8125 C-21.67340478 23.72939253 -21.60184449 23.17008364 -21.1875 20.0625 C-20.98914899 17.62819211 -21.04195973 15.74224738 -21.4375 13.3125 C-21 11 -21 11 -19.328125 9.76171875 C-17.88656067 8.91203759 -16.43432262 8.08023977 -14.97265625 7.265625 C-12.41279689 5.62325978 -11.34341857 3.68683715 -10 1 C-6.6627968 -0.6686016 -3.57942168 -0.71945187 0 0 Z " fill="#FAF9F8" transform="translate(653,539)"/>
<path d="M0 0 C4.77917726 2.48517217 7.44721195 5.27261471 10 10 C10.9375 13.1875 10.9375 13.1875 11 16 C10.00684367 17.00679715 9.00591835 18.00595359 8 19 C2.5968772 30.43986816 -0.40478262 43.42052164 -1 56 C-1.04769531 56.85287598 -1.09539063 57.70575195 -1.14453125 58.58447266 C-1.67938738 69.45542349 -1.30690748 79.75017761 1.1875 90.375 C1.38351807 91.21184326 1.57953613 92.04868652 1.78149414 92.91088867 C3.14679479 98.11285697 5.15512735 102.43394305 7.98071289 107.00952148 C9 109 9 109 9.25 112.6875 C7.54554915 117.20429475 5.18104308 119.62156232 1 122 C-2.69429457 122.80602791 -4.72874629 122.71462446 -8.04296875 120.8515625 C-17.27087907 114.30719083 -22.27479842 106.03077794 -24.65454102 94.953125 C-25.9950768 85.90123128 -26.30916235 77.04315911 -26.26074219 67.90478516 C-26.25001194 65.50267308 -26.2607099 63.1013085 -26.2734375 60.69921875 C-26.28661824 48.25244708 -25.6815988 35.99834136 -21.1875 24.25 C-20.92251709 23.53610107 -20.65753418 22.82220215 -20.38452148 22.08666992 C-11.13619368 -2.36940291 -11.13619368 -2.36940291 0 0 Z " fill="#F9F9F8" transform="translate(787,492)"/>
<path d="M0 0 C4.77247385 0.54751134 8.33619686 2.72554831 12.3125 5.25 C13.00746582 5.68892578 13.70243164 6.12785156 14.41845703 6.58007812 C25.53614623 13.77020048 35.66276807 22.25048942 44.82421875 31.796875 C46.89344831 33.89210924 49.04129485 35.75410003 51.3125 37.625 C60.99141822 46.00434403 65.88746198 59.90478648 69 72 C67.783125 72.04125 66.56625 72.0825 65.3125 72.125 C64.62800781 72.14820313 63.94351563 72.17140625 63.23828125 72.1953125 C61 72 61 72 58.57421875 71.0234375 C54.11467789 69.25044857 49.70638804 69.22624993 45 70 C38.03568027 75.48254958 36.20488059 85.73169778 34 94 C31.03 94.495 31.03 94.495 28 95 C28 94.01 28 93.02 28 92 C27.071875 91.95875 26.14375 91.9175 25.1875 91.875 C22 91 22 91 20.3125 88.625 C16 76.71428571 16 76.71428571 16 71 C17.2684375 69.824375 17.2684375 69.824375 18.5625 68.625 C21.24781756 66.281638 21.24781756 66.281638 21.1875 63.4375 C20.11735996 60.69862426 20.11735996 60.69862426 16.9375 59.0625 C15.4834375 58.0415625 15.4834375 58.0415625 14 57 C13.54932852 53.78091798 13.544724 51.91055201 15 49 C16.155 48.690625 17.31 48.38125 18.5 48.0625 C19.655 47.711875 20.81 47.36125 22 47 C23.58353913 42.24938261 24.16754056 37.91986743 23 33 C20.07977428 29.74086994 16.57542724 27.49098835 13 25 C5.99501935 18.63739749 1.17959436 9.33961185 0 0 Z " fill="#F8F8F7" transform="translate(602,451)"/>
<path d="M0 0 C30.78646458 -0.85934163 30.78646458 -0.85934163 40 6 C40 6.99 40 7.98 40 9 C39.23816406 9.2371875 38.47632813 9.474375 37.69140625 9.71875 C34.52382617 11.22668362 33.68205524 12.50655702 31.9375 15.5 C29.98754581 18.82734565 28.69492791 20.6849773 25 22 C17.50997271 22 13.13215018 18.08838761 8.04296875 13.0703125 C4.21572152 8.92882813 2.08851958 5.2118912 0 0 Z " fill="#F8F8F7" transform="translate(491,437)"/>
<path d="M0 0 C6.96623031 3.29825709 13.13284107 7.60548577 18.96484375 12.6171875 C21.33810546 14.22973001 23.15978491 14.70424207 26 15 C26.928125 14.5359375 26.928125 14.5359375 27.875 14.0625 C30.99741608 12.50129196 33.55544173 12.75827661 37 13 C39.9375 14 39.9375 14 42 15 C41.6875 18.375 41.6875 18.375 41 22 C35.71244703 25.52503531 28.1939078 24.91058981 22 24 C15.72978145 21.5978881 11.48778053 16.55992832 6.89453125 11.83984375 C3.59580485 8.63633832 0.52248477 6.09008874 -4.296875 5.91796875 C-8.28283911 6.26315845 -11.53078734 6.92905388 -15 9 C-15.33 9.66 -15.66 10.32 -16 11 C-16.99 11 -17.98 11 -19 11 C-18.8125 8.6875 -18.8125 8.6875 -18 6 C-15.8125 4.375 -15.8125 4.375 -13 3 C-12.05125 2.443125 -11.1025 1.88625 -10.125 1.3125 C-6.1611958 -0.35229777 -4.29043029 -0.69200489 0 0 Z " fill="#EBEBEA" transform="translate(444,585)"/>
<path d="M0 0 C3.950042 0.86182735 5.1518305 1.44847739 7.4375 4.75 C8.94884803 8.90620708 9.52777958 12.36391701 9.4375 16.75 C8.54546875 16.73839844 7.6534375 16.72679687 6.734375 16.71484375 C5.56390625 16.70582031 4.3934375 16.69679688 3.1875 16.6875 C2.02734375 16.67589844 0.8671875 16.66429687 -0.328125 16.65234375 C-2.97227128 16.73217908 -5.06076091 16.96356222 -7.5625 17.75 C-8.74428624 12.69523111 -9.12362752 8.85092111 -6.5625 4.1875 C-4.37056405 1.12855875 -3.87512994 0.81581683 0 0 Z " fill="#F7F7F6" transform="translate(601.5625,480.25)"/>
<path d="M0 0 C1.23093636 0.00033989 1.23093636 0.00033989 2.48674011 0.00068665 C3.36808121 0.0161705 4.2494223 0.03165436 5.1574707 0.04760742 C6.5161602 0.05397469 6.5161602 0.05397469 7.90229797 0.06047058 C10.79625128 0.07726769 13.68950902 0.11492167 16.58325195 0.15307617 C18.54483044 0.16812168 20.50641984 0.18181032 22.46801758 0.1940918 C27.27753051 0.2271746 32.08652329 0.27896395 36.89575195 0.34057617 C36.89575195 0.67057617 36.89575195 1.00057617 36.89575195 1.34057617 C22.28282803 3.88195424 7.68159513 3.54316466 -7.10424805 3.34057617 C-4.81818236 0.62205631 -3.53981436 -0.03267521 0 0 Z " fill="#1D1E1D" transform="translate(483.104248046875,844.659423828125)"/>
<path d="M0 0 C0 12.87 0 25.74 0 39 C-0.33 39 -0.66 39 -1 39 C-2.40781517 26.28660534 -3.30179444 13.79273087 -3 1 C-1 0 -1 0 0 0 Z " fill="#1B1D1A" transform="translate(200,523)"/>
<path d="M0 0 C3.14581423 -0.02888514 6.29159469 -0.04675923 9.4375 -0.0625 C10.33533203 -0.07087891 11.23316406 -0.07925781 12.15820312 -0.08789062 C13.01220703 -0.09111328 13.86621094 -0.09433594 14.74609375 -0.09765625 C15.93223267 -0.10551147 15.93223267 -0.10551147 17.14233398 -0.11352539 C19 0 19 0 20 1 C22.01594582 1.23427778 24.038474 1.41336124 26.0625 1.5625 C27.16722656 1.64628906 28.27195312 1.73007812 29.41015625 1.81640625 C30.26480469 1.87699219 31.11945313 1.93757812 32 2 C32 2.33 32 2.66 32 3 C27.41678618 3.08704 22.83378466 3.14040632 18.25 3.1875 C16.29707031 3.22520508 16.29707031 3.22520508 14.3046875 3.26367188 C13.05429687 3.27333984 11.80390625 3.28300781 10.515625 3.29296875 C9.36352539 3.3086792 8.21142578 3.32438965 7.02441406 3.34057617 C3.73241214 2.9698672 2.39304923 2.22615202 0 0 Z " fill="#1C1E1C" transform="translate(472,770)"/>
<path d="M0 0 C4.73789165 1.44323469 8.98858151 3.37226733 13.375 5.625 C14.33599609 6.11226563 14.33599609 6.11226563 15.31640625 6.609375 C16.87947501 7.40257407 18.44000622 8.20077031 20 9 C19.34 9.66 18.68 10.32 18 11 C13.27816567 9.66820057 9.34972925 7.59500965 5.125 5.17578125 C2.81742388 3.89897902 0.48516298 2.88183202 -2 2 C-1.34 1.34 -0.68 0.68 0 0 Z " fill="#1C1D1C" transform="translate(452,77)"/>
<path d="M0 0 C1.03125 -0.01417969 2.0625 -0.02835938 3.125 -0.04296875 C5.96545203 0.18473053 7.59107948 0.72245939 10 2.1875 C6.50953395 3.35098868 3.67722983 3.35584776 0 3.375 C-1.2375 3.38917969 -2.475 3.40335938 -3.75 3.41796875 C-7 3.1875 -7 3.1875 -10 1.1875 C-6.63007987 0.17490381 -3.51102519 0.02194391 0 0 Z " fill="#1D1D1C" transform="translate(479,818.8125)"/>
<path d="M0 0 C0.66 0.33 1.32 0.66 2 1 C1.67 1.33 1.34 1.66 1 2 C0.9020943 3.49738124 0.87025136 4.99942892 0.875 6.5 C0.87242187 7.3146875 0.86984375 8.129375 0.8671875 8.96875 C0.7754822 10.99530377 0.7754822 10.99530377 2 12 C2.14115161 14.67058851 2.04247107 17.32432238 2 20 C1.01 19.67 0.02 19.34 -1 19 C-1.07347656 18.07767578 -1.07347656 18.07767578 -1.1484375 17.13671875 C-1.22320312 16.32847656 -1.29796875 15.52023437 -1.375 14.6875 C-1.44460938 13.88699219 -1.51421875 13.08648437 -1.5859375 12.26171875 C-1.89564426 9.72775559 -1.89564426 9.72775559 -4 7 C-4 4 -4 4 -2 1.8125 C-1.34 1.214375 -0.68 0.61625 0 0 Z " fill="#262726" transform="translate(495,494)"/>
<path d="M0 0 C0.66 0 1.32 0 2 0 C2.125 7.75 2.125 7.75 1 10 C1.020625 11.155 1.04125 12.31 1.0625 13.5 C1 17 1 17 -1 19 C-2.10765663 12.13252891 -1.700773 6.73281213 0 0 Z " fill="#1D1E1C" transform="translate(200,502)"/>
<path d="M0 0 C2 1.375 2 1.375 4 3 C4 3.66 4 4.32 4 5 C7.3 5.33 10.6 5.66 14 6 C14 6.99 14 7.98 14 9 C7.85400324 9.78459533 4.75576455 7.98645496 -0.27734375 4.5078125 C-1.13005859 3.76144531 -1.13005859 3.76144531 -2 3 C-2 2.34 -2 1.68 -2 1 C-1.34 0.67 -0.68 0.34 0 0 Z " fill="#414240" transform="translate(433,629)"/>
<path d="M0 0 C3.16115776 1.36983503 3.9927092 1.9890638 6 5 C3.69 6.98 1.38 8.96 -1 11 C-2.31625194 8.36749612 -1.74813658 7.19820944 -1.0625 4.375 C-0.86785156 3.55773437 -0.67320312 2.74046875 -0.47265625 1.8984375 C-0.23869141 0.95871094 -0.23869141 0.95871094 0 0 Z " fill="#222423" transform="translate(436,576)"/>
<path d="M0 0 C1.61648438 0.04060547 1.61648438 0.04060547 3.265625 0.08203125 C4.08546875 0.11683594 4.9053125 0.15164063 5.75 0.1875 C4.76 1.6725 4.76 1.6725 3.75 3.1875 C0.4921875 3.48046875 0.4921875 3.48046875 -3.375 3.375 C-5.29699219 3.33439453 -5.29699219 3.33439453 -7.2578125 3.29296875 C-8.24523437 3.25816406 -9.23265625 3.22335937 -10.25 3.1875 C-6.86416198 0.05642164 -4.53890538 -0.14800778 0 0 Z " fill="#1C1D1C" transform="translate(514.25,818.8125)"/>
<path d="M0 0 C1.9375 0.375 1.9375 0.375 4 1 C4.33 1.66 4.66 2.32 5 3 C4.01 3.495 4.01 3.495 3 4 C3 7.3 3 10.6 3 14 C2.34 14 1.68 14 1 14 C0.83081732 12.41693353 0.66476064 10.83353281 0.5 9.25 C0.4071875 8.36828125 0.314375 7.4865625 0.21875 6.578125 C0 4 0 4 0 0 Z " fill="#272826" transform="translate(630,546)"/>
<path d="M0 0 C0.66 0 1.32 0 2 0 C2.99 4.29 3.98 8.58 5 13 C4.01 13.495 4.01 13.495 3 14 C0.56574762 9.03006806 -0.34615998 5.65394631 0 0 Z " fill="#232423" transform="translate(353,553)"/>
<path d="M0 0 C-0.33 0.66 -0.66 1.32 -1 2 C-4.52059568 3.17353189 -7.306493 3.20146402 -11 3 C-11.66 2.34 -12.32 1.68 -13 1 C-11.39796533 0.63631108 -9.79325797 0.28438048 -8.1875 -0.0625 C-7.29417969 -0.25972656 -6.40085937 -0.45695313 -5.48046875 -0.66015625 C-3 -1 -3 -1 0 0 Z " fill="#1D1F1C" transform="translate(568,784)"/>
<path d="M0 0 C-0.33 0.66 -0.66 1.32 -1 2 C-5.71525485 2.79919574 -10.21154243 3.11971144 -15 3 C-10.42919136 0.44034716 -5.14097791 -2.05639116 0 0 Z " fill="#1F201F" transform="translate(797,216)"/>
<path d="M0 0 C3.4375 1.5 3.4375 1.5 6 3 C5.01 3.66 4.02 4.32 3 5 C2.01 4.34 1.02 3.68 0 3 C-2.50896686 2.54398739 -2.50896686 2.54398739 -5.1875 2.375 C-6.08855469 2.30023437 -6.98960937 2.22546875 -7.91796875 2.1484375 C-8.60503906 2.09945312 -9.29210937 2.05046875 -10 2 C-6.25816125 -0.49455917 -4.43756964 -0.37606522 0 0 Z " fill="#343433" transform="translate(482,626)"/>
<path d="M0 0 C0.94875 0.04125 1.8975 0.0825 2.875 0.125 C2.875 0.785 2.875 1.445 2.875 2.125 C5.845 2.62 5.845 2.62 8.875 3.125 C8.875 3.785 8.875 4.445 8.875 5.125 C4.255 4.135 -0.365 3.145 -5.125 2.125 C-3.125 0.125 -3.125 0.125 0 0 Z " fill="#232423" transform="translate(581.125,407.875)"/>
<path d="M0 0 C0.99 0 1.98 0 3 0 C3 0.99 3 1.98 3 3 C-0.3 3.33 -3.6 3.66 -7 4 C-6.67 3.01 -6.34 2.02 -6 1 C-4.7934375 1.0309375 -4.7934375 1.0309375 -3.5625 1.0625 C-1.06645115 1.29633621 -1.06645115 1.29633621 0 0 Z " fill="#1D1E1C" transform="translate(571,864)"/>
<path d="M0 0 C0.66 0 1.32 0 2 0 C3.2890625 1.75 3.2890625 1.75 4.625 4 C5.07101562 4.7425 5.51703125 5.485 5.9765625 6.25 C6.31429688 6.8275 6.65203125 7.405 7 8 C5.02 8.99 5.02 8.99 3 10 C2.01 6.7 1.02 3.4 0 0 Z " fill="#E4E5E4" transform="translate(281,730)"/>
<path d="M0 0 C4.29 0 8.58 0 13 0 C10 3 10 3 7.73828125 3.29296875 C6.93777344 3.25816406 6.13726562 3.22335937 5.3125 3.1875 C4.10013672 3.14689453 4.10013672 3.14689453 2.86328125 3.10546875 C1.94095703 3.05326172 1.94095703 3.05326172 1 3 C0.67 2.01 0.34 1.02 0 0 Z " fill="#1B1D1A" transform="translate(459,401)"/>
<path d="M0 0 C0.33 0 0.66 0 1 0 C2.32286246 4.96073422 2.08893197 9.91111512 2 15 C0.48046875 13.88671875 0.48046875 13.88671875 -1 12 C-1.07421875 9.08203125 -1.07421875 9.08203125 -0.6875 5.8125 C-0.56761719 4.72582031 -0.44773437 3.63914062 -0.32421875 2.51953125 C-0.21722656 1.68808594 -0.11023438 0.85664062 0 0 Z " fill="#1D1E1C" transform="translate(707,586)"/>
<path d="M0 0 C0.66 0.99 1.32 1.98 2 3 C2.66 2.34 3.32 1.68 4 1 C3.6875 2.875 3.6875 2.875 3 5 C0 7 0 7 -2.1875 6.625 C-2.785625 6.41875 -3.38375 6.2125 -4 6 C-3.525625 5.566875 -3.05125 5.13375 -2.5625 4.6875 C-0.76313043 2.97690387 -0.76313043 2.97690387 0 0 Z " fill="#0A0A09" transform="translate(637,541)"/>
<path d="M0 0 C0.99 0 1.98 0 3 0 C2.34 2.97 1.68 5.94 1 9 C0.01 9 -0.98 9 -2 9 C-1.34 6.03 -0.68 3.06 0 0 Z " fill="#1B1C1A" transform="translate(721,637)"/>
<path d="M0 0 C2.33294775 -0.04241723 4.66702567 -0.04092937 7 0 C8 1 8 1 8.09765625 3.28515625 C8.08605469 4.20167969 8.07445312 5.11820313 8.0625 6.0625 C8.05347656 6.98160156 8.04445313 7.90070312 8.03515625 8.84765625 C8.02355469 9.55792969 8.01195312 10.26820313 8 11 C7.67 11 7.34 11 7 11 C6.34 8.03 5.68 5.06 5 2 C3.35 1.67 1.7 1.34 0 1 C0 0.67 0 0.34 0 0 Z " fill="#050605" transform="translate(427,561)"/>
<path d="M0 0 C0.33 0.66 0.66 1.32 1 2 C0.34 1.67 -0.32 1.34 -1 1 C-0.67 0.67 -0.34 0.34 0 0 Z M-3 3 C-2.67 3 -2.34 3 -2 3 C-2.5859375 9.15234375 -2.5859375 9.15234375 -3 11 C-3.99 11.495 -3.99 11.495 -5 12 C-4.125 4.125 -4.125 4.125 -3 3 Z " fill="#E7E7E7" transform="translate(476,466)"/>
<path d="M0 0 C2.99220268 1.36370299 5.29026529 2.94908083 7.75 5.125 C8.67039062 5.93324219 8.67039062 5.93324219 9.609375 6.7578125 C10.06828125 7.16773438 10.5271875 7.57765625 11 8 C10.34 8.66 9.68 9.32 9 10 C8.51789062 9.50628906 8.03578125 9.01257813 7.5390625 8.50390625 C6.90742187 7.86324219 6.27578125 7.22257812 5.625 6.5625 C4.99851562 5.92441406 4.37203125 5.28632813 3.7265625 4.62890625 C2.08276939 2.92117824 2.08276939 2.92117824 0 2 C0 1.34 0 0.68 0 0 Z " fill="#1F1F1E" transform="translate(634,470)"/>
<path d="M0 0 C0.99 0 1.98 0 3 0 C2.71872579 1.48117801 2.42466268 2.95993249 2.125 4.4375 C1.96257812 5.26121094 1.80015625 6.08492187 1.6328125 6.93359375 C1.31957031 7.95646484 1.31957031 7.95646484 1 9 C0.01 9.495 0.01 9.495 -1 10 C-2.46726798 6.18510326 -1.43336419 3.70988378 0 0 Z " fill="#191B19" transform="translate(352,174)"/>
<path d="M0 0 C0.99 0 1.98 0 3 0 C3.33 2.31 3.66 4.62 4 7 C3.01 7.33 2.02 7.66 1 8 C0.67 5.36 0.34 2.72 0 0 Z " fill="#1D1D1B" transform="translate(816,744)"/>
<path d="M0 0 C2.26609984 4.53219967 1.92735976 6.17772925 1 11 C0.34 10.67 -0.32 10.34 -1 10 C-0.67 6.7 -0.34 3.4 0 0 Z " fill="#232422" transform="translate(787,532)"/>
<path d="M0 0 C2.875 -0.125 2.875 -0.125 6 0 C6.66 0.66 7.32 1.32 8 2 C5.35541621 3.32229189 3.32238699 3.09677194 0.375 3.0625 C-0.62789062 3.05347656 -1.63078125 3.04445313 -2.6640625 3.03515625 C-3.43492187 3.02355469 -4.20578125 3.01195312 -5 3 C-5 2.67 -5 2.34 -5 2 C-3.35 1.67 -1.7 1.34 0 1 C0 0.67 0 0.34 0 0 Z " fill="#1A1C1A" transform="translate(529,313)"/>
<path d="M0 0 C0 0.99 0 1.98 0 3 C-3.00419641 4.0013988 -5.87709365 4.51421457 -9 5 C-9 4.01 -9 3.02 -9 2 C-2.25 0 -2.25 0 0 0 Z " fill="#1B1C1A" transform="translate(617,299)"/>
<path d="M0 0 C3.3 0 6.6 0 10 0 C10 0.99 10 1.98 10 3 C6.7 2.34 3.4 1.68 0 1 C0 0.67 0 0.34 0 0 Z " fill="#1B1C1A" transform="translate(438,288)"/>
<path d="M0 0 C1.98 0.66 3.96 1.32 6 2 C6 2.99 6 3.98 6 5 C5.401875 4.649375 4.80375 4.29875 4.1875 3.9375 C1.89186786 2.66695302 1.89186786 2.66695302 -1 4 C-0.67 2.68 -0.34 1.36 0 0 Z " fill="#232422" transform="translate(754,635)"/>
<path d="M0 0 C1.65 1.65 3.3 3.3 5 5 C4.01 5.495 4.01 5.495 3 6 C0.375 4.6875 0.375 4.6875 -2 3 C-2 2.34 -2 1.68 -2 1 C-1.34 0.67 -0.68 0.34 0 0 Z " fill="#8F908F" transform="translate(433,629)"/>
<path d="M0 0 C0.99 0.33 1.98 0.66 3 1 C3 3.31 3 5.62 3 8 C2.01 8 1.02 8 0 8 C0 5.36 0 2.72 0 0 Z " fill="#1B1D1B" transform="translate(830,528)"/>
<path d="M0 0 C3 2 3 2 3.6875 5.125 C3.8421875 6.548125 3.8421875 6.548125 4 8 C3.01 8.495 3.01 8.495 2 9 C1.34 6.03 0.68 3.06 0 0 Z " fill="#0F0F0E" transform="translate(721,528)"/>
<path d="M0 0 C1.65 1.65 3.3 3.3 5 5 C3.0625 5.5625 3.0625 5.5625 1 6 C0 5 0 5 -0.0625 2.4375 C-0.041875 1.633125 -0.02125 0.82875 0 0 Z " fill="#6C6D6C" transform="translate(437,576)"/>
<path d="M0 0 C5.75 1.75 5.75 1.75 8 4 C4.37673261 5.2077558 3.35853631 4.54311128 0 3 C0 2.01 0 1.02 0 0 Z " fill="#202221" transform="translate(367,281)"/>
<path d="M0 0 C2.56687367 3.8503105 1.83288724 5.58569763 1 10 C0.01 10 -0.98 10 -2 10 C-1.34 6.7 -0.68 3.4 0 0 Z " fill="#1E1E1E" transform="translate(339,215)"/>
<path d="M0 0 C0.33 0.66 0.66 1.32 1 2 C-0.65 2.66 -2.3 3.32 -4 4 C-4 4.66 -4 5.32 -4 6 C-4.99 6 -5.98 6 -7 6 C-6 3 -6 3 -2.9375 1.3125 C-1.968125 0.879375 -0.99875 0.44625 0 0 Z " fill="#0A0B0A" transform="translate(694,850)"/>
<path d="M0 0 C1.8871875 0.061875 1.8871875 0.061875 3.8125 0.125 C1.9375 1.1875 1.9375 1.1875 -0.1875 2.125 C-0.8475 1.795 -1.5075 1.465 -2.1875 1.125 C-2.1875 1.785 -2.1875 2.445 -2.1875 3.125 C-3.8375 2.795 -5.4875 2.465 -7.1875 2.125 C-4.09861478 0.06574319 -3.47814073 -0.1140374 0 0 Z " fill="#1B1C1B" transform="translate(583.1875,778.875)"/>
<path d="M0 0 C0.66 0.33 1.32 0.66 2 1 C1.67 3.31 1.34 5.62 1 8 C0.01 8.33 -0.98 8.66 -2 9 C-1.34 6.03 -0.68 3.06 0 0 Z " fill="#1D1E1D" transform="translate(639,532)"/>
<path d="M0 0 C2.12508244 3.18762365 2.5020163 5.26512223 3 9 C2.01 8.67 1.02 8.34 0 8 C0 5.36 0 2.72 0 0 Z " fill="#1E1F1E" transform="translate(673,222)"/>
</svg>
